<?xml version="1.0" encoding="UTF-8"?>
<svg id="Layer_1" data-name="Layer 1" xmlns="http://www.w3.org/2000/svg" viewBox="0 0 2134 630">
  <defs>
    <style>
      .cls-1 {
        fill: #70d44b;
      }

      .cls-1, .cls-2 {
        stroke-width: 0px;
      }

      .cls-2 {
        fill: #124734;
      }
    </style>
  </defs>
  <path class="cls-1" d="m58.62,315.19c0-21.84-.13-43.68.02-65.52.39-57.06,47.69-104.38,104.87-104.73,38.16-.23,76.33-.23,114.49,0,57.59.35,104.63,47.63,104.96,105.36.12,20.55,2.21,17.95-17.98,18.14-5.02.05-10.05-.18-15.06.05-5.59.25-7.73-2.47-7.62-7.71.08-3.76,0-7.53-.03-11.3-.28-36.08-27.93-63.77-64.11-63.91-38.16-.15-76.33-.14-114.49,0-36.53.13-64.19,27.9-64.29,64.49-.11,42.92-.09,85.85,0,128.77.07,37.15,27.97,65.32,65.07,65.81,14.1.18,13.56-1.35,13.52,13.43-.02,6.78-.11,13.56,0,20.33.08,4.8-2.17,6.67-6.85,6.79-64.27,1.59-111.42-47.87-112.41-103.73-.39-22.08-.06-44.18-.07-66.27Z"/>
  <path class="cls-2" d="m383.37,347.09c-.82,18.7,1.79,40.28-4.53,61.53-13.01,43.74-55.7,76.23-101.22,76.34-5.3.01-7.11-1.84-6.93-7.04.3-8.78.37-17.58-.02-26.35-.25-5.64,1.81-7.18,7.33-7.41,28.55-1.16,48.78-14.84,60.18-41.23,2.83-6.55,4.1-13.44,4.17-20.52.14-14.06.09-28.11.14-42.17,0-2.81.39-5.62-4-5.41-13.76.66-27.61-1.29-41.31,1.42-30.55,6.05-52.01,31.79-52.21,63.02-.17,25.6-.23,51.21.1,76.81.08,6.65-2.04,8.94-8.64,8.56-8.26-.47-16.57-.32-24.85-.04-5.32.18-7.74-1.39-7.68-7.2.24-25.85-.39-51.72.28-77.56,1.55-59.84,48.31-105.17,108.29-105.53,20.84-.13,41.68.2,62.52-.17,6.74-.12,8.7,2.26,8.51,8.74-.39,13.8-.12,27.61-.12,44.19Z"/>
  <g>
    <path class="cls-2" d="m536.99,420.56c-21.1-18.76-31.49-43.88-31.49-75.04v-38.52c0-31.15,10.38-55.94,31.49-74.7,21.1-18.76,47.57-28.14,78.72-28.14,23.78,0,44.89,5.69,62.64,17.42,17.75,11.39,29.81,27.8,35.84,49.24l-27.13,10.05c-10.38-33.16-37.85-48.91-71.68-48.91-23.11,0-42.21,7.03-57.28,21.1-14.74,14.07-22.11,32.83-22.11,56.28v33.83c0,23.45,7.37,42.21,22.11,56.61,15.07,14.07,33.83,21.1,56.61,21.1,35.17,0,62.31-18.76,73.03-50.92l27.13,10.72c-13.73,43.88-50.25,68-98.48,68-31.82,0-58.29-9.38-79.39-28.14Z"/>
    <path class="cls-2" d="m857.22,268.48v26.8c-19.09-1.34-34.84,3.01-47.23,12.73-12.39,9.71-20.1,22.11-23.45,36.85v98.82h-28.81v-173.18h25.79l2.34,34.5c14.74-23.78,41.54-38.19,71.35-36.51Z"/>
    <path class="cls-2" d="m880.67,347.53c0-24.12,8.37-43.55,24.79-58.62,16.75-15.07,37.52-22.78,62.64-22.78s45.89,7.7,62.31,22.78c16.75,15.07,25.12,34.5,25.12,58.62v19.76c0,24.12-8.37,43.55-25.12,58.62-16.41,14.74-37.18,22.11-62.31,22.11s-45.89-7.37-62.64-22.11c-16.41-15.07-24.79-34.5-24.79-58.62v-19.76Zm146.05-1.01c0-16.41-5.7-29.81-16.75-40.53-11.05-10.72-24.79-16.08-41.87-16.08s-31.15,5.36-42.21,16.08c-11.05,10.72-16.41,24.12-16.41,40.53v22.11c0,15.74,5.69,29.14,16.75,39.86,11.05,10.38,25.12,15.74,41.87,15.74s30.82-5.36,41.87-15.74c11.05-10.72,16.75-24.12,16.75-39.86v-22.11Z"/>
    <path class="cls-2" d="m1242.78,287.57c15.74,14.4,23.45,34.17,23.45,59.29v19.76c0,57.95-45.22,81.06-82.07,81.06-22.44,0-41.87-7.37-57.62-21.77v71.69h-28.81v-227.11h25.79l2.01,24.79c16.75-19.43,37.85-29.14,63.31-29.14,20.43,0,38.52,7.03,53.93,21.44Zm-5.36,60.3c0-17.75-5.03-31.82-15.41-42.21s-23.45-15.74-39.19-15.74c-24.12,0-45.22,14.07-56.28,34.5v71.69c11.72,16.41,30.82,28.14,53.26,28.14,16.08,0,29.81-5.36,40.87-15.74,11.05-10.72,16.75-24.79,16.75-42.54v-18.09Z"/>
    <path class="cls-2" d="m1336.24,420.56c-21.1-18.76-31.49-43.88-31.49-75.04v-38.52c0-31.15,10.38-55.94,31.49-74.7,21.1-18.76,47.57-28.14,78.72-28.14,23.78,0,44.89,5.69,62.64,17.42,17.75,11.39,29.81,27.8,35.84,49.24l-27.13,10.05c-10.38-33.16-37.85-48.91-71.68-48.91-23.11,0-42.21,7.03-57.28,21.1-14.74,14.07-22.11,32.83-22.11,56.28v33.83c0,23.45,7.37,42.21,22.11,56.61,15.07,14.07,33.83,21.1,56.61,21.1,35.17,0,62.31-18.76,73.03-50.92l27.13,10.72c-13.73,43.88-50.25,68-98.48,68-31.82,0-58.29-9.38-79.39-28.14Z"/>
    <path class="cls-2" d="m1710.41,341.84v101.83h-23.45l-3.68-24.79c-14.4,18.76-39.19,29.14-67,29.14-20.43,0-37.18-5.02-50.58-15.41-13.4-10.38-20.1-23.11-20.1-38.52v-4.02c0-17.08,7.03-30.82,21.44-41.54,14.4-11.05,32.49-16.41,54.6-16.41s42.88,5.69,59.96,16.75v-8.04c0-34.5-21.1-51.92-54.94-51.92-23.78,0-41.54,7.7-52.59,23.11l-16.75-13.73c14.4-21.44,38.52-32.16,71.69-32.16,49.24,0,81.4,25.79,81.4,75.7Zm-28.81,49.91v-21.44c-14.07-11.72-32.83-17.42-55.94-17.42-30.48,0-50.92,13.4-50.92,36.18v2.68c0,21.1,21.1,33.83,48.24,33.83s50.92-14.07,58.62-33.83Z"/>
    <path class="cls-2" d="m1858.13,268.48v26.8c-19.09-1.34-34.84,3.01-47.23,12.73-12.39,9.71-20.1,22.11-23.45,36.85v98.82h-28.81v-173.18h25.79l2.34,34.5c14.74-23.78,41.54-38.19,71.35-36.51Z"/>
    <path class="cls-2" d="m1909.72,365.62v1c0,17.08,6.03,31.15,17.75,41.87,11.72,10.38,27.13,15.74,46.23,15.74,25.79,0,45.89-11.05,60.3-32.83l15.74,14.4c-16.08,27.8-44.55,42.21-77.71,42.21-25.46,0-46.9-7.37-64.32-22.11-17.42-15.07-26.13-34.5-26.13-58.96v-19.43c0-24.45,8.37-44.22,25.12-58.96,17.08-15.07,37.52-22.44,61.97-22.44s43.55,7.37,59.63,22.11c16.41,14.74,24.45,34.84,24.45,60.3v17.08h-143.04Zm0-21.77h116.24c-1.01-33.5-22.44-55.27-56.95-55.27s-57.95,21.77-59.29,55.27Z"/>
  </g>
</svg>