<?xml version="1.0" encoding="UTF-8"?>
<svg id="Layer_1" data-name="Layer 1" xmlns="http://www.w3.org/2000/svg" viewBox="0 0 2134 630">
  <defs>
    <style>
      .cls-1 {
        fill: #bff466;
      }

      .cls-1, .cls-2 {
        stroke-width: 0px;
      }

      .cls-3 {
        letter-spacing: -.01em;
      }

      .cls-4 {
        letter-spacing: 0em;
      }

      .cls-5 {
        letter-spacing: -.02em;
      }

      .cls-6 {
        font-family: Marsden-SemiBold, Marsden;
        font-size: 346.15px;
        font-weight: 600;
      }

      .cls-6, .cls-2 {
        fill: #f2f8f6;
      }
    </style>
  </defs>
  <path class="cls-1" d="m58.62,315.19c0-21.84-.13-43.68.02-65.52.39-57.06,47.69-104.38,104.87-104.73,38.16-.23,76.33-.23,114.49,0,57.59.35,104.63,47.63,104.96,105.36.12,20.55,2.21,17.95-17.98,18.14-5.02.05-10.05-.18-15.06.05-5.59.25-7.73-2.47-7.62-7.71.08-3.76,0-7.53-.03-11.3-.28-36.08-27.93-63.77-64.11-63.91-38.16-.15-76.33-.14-114.49,0-36.53.13-64.19,27.9-64.29,64.49-.11,42.92-.09,85.85,0,128.77.07,37.15,27.97,65.32,65.07,65.81,14.1.18,13.56-1.35,13.52,13.43-.02,6.78-.11,13.56,0,20.33.08,4.8-2.17,6.67-6.85,6.79-64.27,1.59-111.42-47.87-112.41-103.73-.39-22.08-.06-44.18-.07-66.27Z"/>
  <path class="cls-2" d="m383.37,347.09c-.82,18.7,1.79,40.28-4.53,61.53-13.01,43.74-55.7,76.23-101.22,76.34-5.3.01-7.11-1.84-6.93-7.04.3-8.78.37-17.58-.02-26.35-.25-5.64,1.81-7.18,7.33-7.41,28.55-1.16,48.78-14.84,60.18-41.23,2.83-6.55,4.1-13.44,4.17-20.52.14-14.06.09-28.11.14-42.17,0-2.81.39-5.62-4-5.41-13.76.66-27.61-1.29-41.31,1.42-30.55,6.05-52.01,31.79-52.21,63.02-.17,25.6-.23,51.21.1,76.81.08,6.65-2.04,8.94-8.64,8.56-8.26-.47-16.57-.32-24.85-.04-5.32.18-7.74-1.39-7.68-7.2.24-25.85-.39-51.72.28-77.56,1.55-59.84,48.31-105.17,108.29-105.53,20.84-.13,41.68.2,62.52-.17,6.74-.12,8.7,2.26,8.51,8.74-.39,13.8-.12,27.61-.12,44.19Z"/>
  <text class="cls-6" transform="translate(489.55 448.79)"><tspan x="0" y="0">C</tspan><tspan class="cls-5" x="240.57" y="0">r</tspan><tspan class="cls-4" x="379.73" y="0">op</tspan><tspan class="cls-3" x="794.07" y="0">C</tspan><tspan x="1030.84" y="0">a</tspan><tspan class="cls-5" x="1238.18" y="0">r</tspan><tspan class="cls-4" x="1377.34" y="0">e</tspan></text>
</svg>